<svg width="184" height="187" viewBox="0 0 184 187" fill="none" xmlns="http://www.w3.org/2000/svg">
<path fill-rule="evenodd" clip-rule="evenodd" d="M125.592 133.137L122.014 144.385C115.521 164.797 98.8019 180.029 77.8264 184.641C56.851 189.253 34.6109 182.588 19.0486 167.026C3.48634 151.464 -3.17881 129.223 1.43349 108.248C6.04578 87.2725 21.2778 70.553 41.6897 64.0604L52.9378 60.4826L146.125 30.8417C148.655 30.0371 151.47 30.7471 153.399 32.6755C155.327 34.604 156.037 37.4199 155.233 39.9493L125.592 133.137ZM115.244 130.041L112.325 139.245C108.02 152.82 98.183 163.588 85.4351 169.162C86.0817 167.305 86.4318 165.309 86.429 163.23C86.4227 158.486 84.5807 154.169 81.5759 150.951C78.7278 155.159 73.9067 157.922 68.4354 157.914C62.9634 157.907 58.1345 155.131 55.2753 150.914C52.2783 154.124 50.4472 158.437 50.4535 163.182C50.4576 166.267 51.2381 169.172 52.6099 171.711C43.5111 169.39 34.9805 164.612 28.0583 157.69C19.0462 148.677 13.6684 136.939 12.6151 124.77C18.6705 129.272 25.2685 133.024 32.2662 135.93C37.5075 138.107 42.9249 139.789 48.4475 140.963C48.1664 139.618 48.0178 138.224 48.0159 136.796C48.0119 133.779 48.6637 130.915 49.8368 128.34C45.154 128.685 40.5589 128.488 36.1049 126.638C27.7116 123.152 19.9639 118.3 13.1728 112.29C13.1427 112.263 13.1123 112.237 13.0817 112.211C13.2262 111.325 13.3948 110.441 13.5877 109.559C17.345 92.3933 29.7992 78.7202 46.5025 73.4232L55.7069 70.5043L131.963 46.3216C134.033 45.6652 136.338 46.2488 137.919 47.8291C139.499 49.4094 140.083 51.7151 139.426 53.7849L120.516 113.414C114.015 118.954 106.673 123.448 98.7509 126.721C94.9281 128.3 90.9979 128.659 86.996 128.502C88.1438 131.051 88.7842 133.877 88.7882 136.85C88.7899 138.12 88.6754 139.363 88.4548 140.568C93.2795 139.442 98.0153 137.924 102.614 136.024C107.053 134.19 111.33 132.015 115.408 129.523L115.244 130.041ZM115.062 2.66575C114.578 0.867838 112.727 -0.200684 110.928 0.279141L32.049 21.3175C30.2499 21.7973 29.1839 23.6438 29.6678 25.4417C30.1518 27.2396 32.0025 28.3081 33.8016 27.8283L112.681 6.78997C114.48 6.31014 115.546 4.46367 115.062 2.66575ZM163.704 123.171C163.367 124.437 164.118 125.739 165.383 126.08C166.648 126.42 167.947 125.67 168.285 124.404L183.087 68.9058C183.425 67.6401 182.673 66.3379 181.408 65.9974C180.143 65.6569 178.844 66.407 178.506 67.6727L163.704 123.171ZM59.7716 40.699C59.4763 39.602 58.3471 38.9501 57.2495 39.2428L9.12283 52.0789C8.02519 52.3717 7.37475 53.4983 7.67004 54.5952C7.96531 55.6922 9.0945 56.3441 10.1921 56.0514L58.3188 43.2153C59.4164 42.9225 60.0669 41.7959 59.7716 40.699ZM68.4006 131.531C73.8717 131.538 78.6925 128.776 81.5406 124.568C84.5453 127.786 86.3873 132.103 86.3936 136.847C86.4068 146.781 78.3641 154.824 68.4297 154.811C58.4953 154.797 50.4312 146.733 50.418 136.799C50.4117 132.054 52.2431 127.741 55.2405 124.531C58.0996 128.748 62.9286 131.524 68.4006 131.531ZM70.3509 123.965C78.6031 123.893 85.2251 117.888 85.1415 110.552C85.0579 103.217 78.3004 97.3285 70.0482 97.4006C64.6181 97.448 59.8938 100.064 57.3215 103.938C58.894 104.493 60.0131 105.851 60.0313 107.447C60.0553 109.554 58.1537 111.278 55.784 111.299C55.6108 111.301 55.4398 111.293 55.2718 111.277C55.6277 118.395 62.2732 124.035 70.3509 123.965ZM77.106 111.328C79.4757 111.307 81.3773 109.582 81.3533 107.476C81.3293 105.369 79.3888 103.679 77.0191 103.699C74.6494 103.72 72.7478 105.444 72.7718 107.551C72.7958 109.657 74.7363 111.348 77.106 111.328Z" fill="white"/>
</svg>
