<svg width="80" height="90" viewBox="0 0 80 90" fill="none" xmlns="http://www.w3.org/2000/svg">
<path fill-rule="evenodd" clip-rule="evenodd" d="M68.5487 42.795L71.101 47.7414C75.7327 56.7178 75.2377 67.378 69.7929 75.915C64.348 84.452 54.7298 89.6484 44.373 89.6484C34.0163 89.6484 24.3981 84.452 18.9532 75.915C13.5084 67.378 13.0134 56.7178 17.6451 47.7414L20.1974 42.795L41.3425 1.81497C41.9164 0.702639 43.0897 -2.98023e-08 44.3731 0C45.6565 2.98023e-08 46.8297 0.702639 47.4036 1.81497L68.5487 42.795ZM64.0754 45.2148L66.1669 49.2596C66.9331 50.7414 67.5281 52.2793 67.9531 53.8477C65.0967 56.3111 61.8721 58.3225 58.3908 59.8058C56.6871 60.5317 54.9306 60.7122 53.1399 60.6625C53.6633 61.7968 53.9608 63.0576 53.9742 64.3877C53.9799 64.9558 53.9335 65.5123 53.8395 66.0527C55.9932 65.5241 58.1057 64.8209 60.1554 63.9476C63.2118 62.6454 66.0921 60.9806 68.7362 58.9942C68.9082 63.6077 67.685 68.2452 65.0949 72.2975C61.5517 77.8411 55.8519 81.6621 49.405 83.0004C51.6073 81.545 53.0494 79.0369 53.0208 76.2009C52.9995 74.0788 52.1586 72.1569 50.802 70.7327C49.5444 72.6301 47.3985 73.8903 44.9509 73.915C42.5029 73.9396 40.3318 72.7225 39.0363 70.8504C37.7082 72.3017 36.9059 74.2404 36.9273 76.3628C36.9575 79.3666 38.6297 81.9693 41.0826 83.3272C33.8408 82.4103 27.3322 78.3964 23.4341 72.2975C20.9054 68.3412 19.6796 63.8273 19.7829 59.3224C22.528 61.3277 25.5175 62.9894 28.6854 64.2643C31.0388 65.2115 33.469 65.9365 35.9443 66.4335C35.8132 65.833 35.7412 65.2101 35.7348 64.5713C35.7212 63.2217 36.0015 61.9376 36.516 60.7799C36.4923 60.7815 36.4687 60.7833 36.445 60.7853C34.376 60.9558 32.3434 60.8836 30.3663 60.0879C26.7779 58.6436 23.4465 56.6422 20.493 54.1625C20.9221 52.4851 21.5447 50.8404 22.3621 49.2596L24.4536 45.2148L41.7811 11.7048C42.2514 10.7952 43.2128 10.2206 44.2645 10.2206C45.3162 10.2206 46.2776 10.7952 46.7479 11.7048L64.0754 45.2148ZM21.6304 2.77818C20.8711 2.33979 19.9002 2.59995 19.4618 3.35926L0.212954 36.6992C-0.225431 37.4585 0.034726 38.4294 0.794031 38.8678C1.55334 39.3062 2.52425 39.046 2.96264 38.2867L22.2115 4.94679C22.6498 4.18748 22.3897 3.21656 21.6304 2.77818ZM77.9156 26.7558C78.2241 27.29 78.9072 27.473 79.4414 27.1646C79.9757 26.8562 80.1587 26.173 79.8503 25.6388L66.3071 2.18129C65.9986 1.64706 65.3155 1.46402 64.7813 1.77246C64.247 2.0809 64.064 2.76402 64.3724 3.29826L77.9156 26.7558ZM15.8884 33.9144C15.4251 33.6469 14.8327 33.8057 14.5653 34.2689L2.82098 54.6106C2.55351 55.0739 2.71224 55.6663 3.17551 55.9337C3.63879 56.2012 4.23117 56.0425 4.49865 55.5792L16.2429 35.2375C16.5104 34.7743 16.3517 34.1819 15.8884 33.9144ZM44.8321 62.1123C47.2796 62.0877 49.4254 60.8276 50.683 58.9304C52.0398 60.3546 52.8807 62.2766 52.902 64.3987C52.9468 68.8428 49.3804 72.4817 44.9363 72.5265C40.4922 72.5712 36.8532 69.0048 36.8085 64.5607C36.7871 62.4382 37.5895 60.4993 38.9178 59.048C40.2133 60.9199 42.3842 62.1369 44.8321 62.1123ZM45.179 59.2893C49.0676 59.2502 52.1917 56.4164 52.1569 52.9599C52.1221 49.5034 48.9416 46.733 45.053 46.7722C42.4942 46.7979 40.2664 48.0338 39.0519 49.8609C39.7925 50.1213 40.3189 50.7604 40.3265 51.5127C40.3365 52.5052 39.4394 53.319 38.3227 53.3302C38.2411 53.3311 38.1607 53.3276 38.0815 53.32C38.2448 56.6741 41.3727 59.3276 45.179 59.2893ZM48.3699 53.3302C49.4865 53.319 50.3837 52.5052 50.3737 51.5127C50.3637 50.5201 49.4504 49.7246 48.3337 49.7358C47.2171 49.747 46.3199 50.5608 46.3299 51.5534C46.3399 52.5459 47.2532 53.3415 48.3699 53.3302Z" fill="white"/>
</svg>
