<svg width="209" height="209" viewBox="0 0 209 209" fill="none" xmlns="http://www.w3.org/2000/svg">
<path fill-rule="evenodd" clip-rule="evenodd" d="M168.463 137.321L163.66 152.366C154.943 179.668 132.562 200.063 104.51 206.266C76.4573 212.47 46.7341 203.599 25.9551 182.82C5.17607 162.041 -3.69569 132.317 2.5082 104.265C8.71209 76.2128 29.107 53.8318 56.4092 45.1149L71.4541 40.3115L196.098 0.516099C199.481 -0.564097 203.245 0.380102 205.82 2.95499C208.395 5.5299 209.339 9.29353 208.259 12.6768L168.463 137.321ZM166.716 136.379L162.046 151.005C153.572 177.546 131.814 197.373 104.543 203.404C77.2725 209.435 48.3772 200.811 28.1769 180.61C7.97664 160.41 -0.648025 131.515 5.38308 104.244C11.4142 76.9728 31.241 55.2152 57.7828 46.7411L72.4087 42.0714L193.581 3.38442C196.87 2.33431 200.529 3.25221 203.032 5.75538C205.535 8.25858 206.453 11.9174 205.403 15.2064L166.716 136.379ZM138.949 99.8208C136.228 93.1827 132.16 86.947 126.751 81.5382C105.318 60.1045 70.8968 59.7344 49.9191 80.7121C28.9414 101.69 29.3115 136.111 50.7453 157.544C72.179 178.978 106.6 179.348 127.578 158.371C136.699 149.249 141.784 137.586 142.857 125.554C137.615 128.403 130.839 127.549 126.321 123.031C120.846 117.556 120.751 108.763 126.11 103.404C129.565 99.949 134.448 98.761 138.949 99.8208Z" fill="white"/>
</svg>
