<svg width="84" height="88" viewBox="0 0 84 88" fill="none" xmlns="http://www.w3.org/2000/svg">
<path fill-rule="evenodd" clip-rule="evenodd" d="M58.0893 68.0732L59.7743 62.7957L73.7337 19.0731C74.1126 17.8863 73.7814 16.5661 72.8782 15.6629C71.975 14.7597 70.6548 14.4285 69.468 14.8074L25.7454 28.7668L20.4679 30.4518C10.8908 33.5095 3.73669 41.3603 1.56049 51.2005C-0.61572 61.0407 2.49632 71.467 9.7852 78.7559C17.0741 86.0448 27.5004 89.1568 37.3406 86.9806C47.1808 84.8044 55.0316 77.6503 58.0893 68.0732ZM45.8057 73.2084C47.7928 72.3853 49.7023 71.3984 51.5154 70.2602C48.3263 75.7522 42.9666 79.7221 36.5799 81.1281C28.5268 82.901 19.9893 80.3445 14.0164 74.3716C12.7285 73.0837 11.5995 71.6766 10.6384 70.1809C12.489 71.3526 14.4409 72.3662 16.4741 73.2084C21.1237 75.1344 26.1071 76.1256 31.1399 76.1256C36.1726 76.1256 41.1561 75.1343 45.8057 73.2084ZM8.66233 63.482C11.4479 61.0516 14.6139 59.0865 18.0387 57.6679C22.0044 56.0252 26.2428 55.1461 30.5313 55.0748C26.3731 55.6293 23.1655 59.1899 23.1655 63.4998C23.1655 67.8082 26.3711 71.368 30.5273 71.9242C26.2542 71.8475 22.0316 70.9688 18.0798 69.3319C14.6381 67.9063 11.4578 65.9288 8.66233 63.482ZM40.1655 63.4998C40.1655 67.6874 37.1372 71.1678 33.151 71.8704C36.9451 71.6464 40.6799 70.7899 44.2 69.3319C47.6248 67.9133 50.7908 65.9482 53.5764 63.5178C50.7809 61.0709 47.6006 59.0935 44.159 57.6679C40.6587 56.218 36.9461 55.363 33.174 55.1332C37.1488 55.8451 40.1655 59.3201 40.1655 63.4998ZM6.85047 59.5209C6.57066 56.9661 6.69737 54.3626 7.25977 51.808C9.03262 43.7548 14.8821 37.3345 22.7191 34.8398L27.0377 33.4651L62.8162 22.0761C63.7874 21.767 64.8684 22.0392 65.6085 22.7794C66.3487 23.5196 66.6209 24.6005 66.3118 25.5717L55.4724 59.6236C52.5484 57.2138 49.2778 55.2465 45.7647 53.7914C41.115 51.8654 36.1316 50.8741 31.0989 50.8741C26.0661 50.8741 21.0827 51.8654 16.433 53.7913C12.9699 55.2258 9.74252 57.1579 6.85047 59.5209ZM54.9173 1.61238C54.6914 0.769464 53.825 0.269243 52.9821 0.495101L15.9711 10.4122C15.1281 10.638 14.6279 11.5045 14.8538 12.3474C15.0796 13.1903 15.946 13.6905 16.789 13.4646L53.8 3.54756C54.6429 3.3217 55.1432 2.45529 54.9173 1.61238ZM70.409 66.5372C70.1831 67.3802 70.6833 68.2466 71.5262 68.4724C72.3691 68.6983 73.2356 68.1981 73.4614 67.3552L83.3785 30.3441C83.6044 29.5012 83.1041 28.6348 82.2612 28.4089C81.4183 28.183 80.5519 28.6833 80.326 29.5262L70.409 66.5372ZM28.963 19.4843C28.8252 18.97 28.2965 18.6648 27.7823 18.8026L5.2007 24.8533C4.68641 24.9911 4.38121 25.5197 4.51901 26.034C4.65681 26.5483 5.18544 26.8535 5.69972 26.7157L28.2813 20.665C28.7956 20.5272 29.1008 19.9986 28.963 19.4843Z" fill="white"/>
</svg>
