<svg width="209" height="209" viewBox="0 0 209 209" fill="none" xmlns="http://www.w3.org/2000/svg">
<path fill-rule="evenodd" clip-rule="evenodd" d="M168.365 137.617L163.562 152.662C154.845 179.964 132.464 200.359 104.411 206.563C76.3591 212.767 46.636 203.895 25.857 183.116C5.07793 162.337 -3.79383 132.613 2.41006 104.561C8.61395 76.509 29.0088 54.1279 56.311 45.4111L71.356 40.6077L196 0.812241C199.383 -0.267954 203.147 0.676245 205.722 3.25113C208.297 5.82604 209.241 9.58967 208.16 12.9729L168.365 137.617ZM154.535 133.496L150.616 145.808C143.504 168.15 125.201 184.825 102.243 189.879C79.2854 194.933 54.9468 187.645 37.9193 170.617C20.8918 153.59 13.6037 129.251 18.6577 106.294C23.7117 83.3357 40.3872 65.0327 62.7288 57.9209L75.0402 54.002L177.037 21.5344C179.806 20.6531 182.888 21.4292 184.998 23.5392C187.108 25.6493 187.884 28.7309 187.002 31.4995L154.535 133.496ZM110.203 70.3956C103.585 67.6262 96.2995 66.093 88.6504 66.093C58.3385 66.093 33.7376 90.1705 33.7376 119.837C33.7376 149.504 58.3385 173.582 88.6504 173.582C118.962 173.582 143.563 149.504 143.563 119.837C143.563 106.938 138.912 95.0947 131.162 85.8285C129.47 91.55 124.075 95.7372 117.686 95.7372C109.943 95.7372 103.658 89.5866 103.658 82.0082C103.658 77.1217 106.271 72.8288 110.203 70.3956Z" fill="white"/>
</svg>
