<svg width="170" height="255" viewBox="0 0 170 255" fill="none" xmlns="http://www.w3.org/2000/svg">
<path fill-rule="evenodd" clip-rule="evenodd" d="M153.385 121.426L160.627 135.461C173.769 160.93 172.364 191.177 156.915 215.4C141.466 239.623 114.175 254.367 84.7891 254.367C55.4031 254.367 28.1124 239.623 12.6633 215.4C-2.78587 191.177 -4.1903 160.93 8.95152 135.461L16.1934 121.426L76.1903 5.14978C77.8188 1.99366 81.1477 0 84.7892 0C88.4306 0 91.7596 1.99366 93.3881 5.14978L153.385 121.426ZM140.692 128.292L146.626 139.769C157.395 160.595 156.245 185.329 143.585 205.136C130.925 224.943 108.561 237 84.4809 237C60.4004 237 38.0368 224.943 25.377 205.136C12.7171 185.329 11.5662 160.595 22.3354 139.769L28.2697 128.292L77.4345 33.2111C78.769 30.6302 81.4969 29 84.4809 29C87.4649 29 90.1928 30.6302 91.5273 33.2111L140.692 128.292ZM105.999 115.779C99.3807 113.01 92.0953 111.476 84.4461 111.476C54.1343 111.476 29.5333 135.554 29.5333 165.221C29.5333 194.888 54.1343 218.965 84.4461 218.965C114.758 218.965 139.359 194.888 139.359 165.221C139.359 152.321 134.708 140.478 126.958 131.212C125.266 136.934 119.871 141.121 113.482 141.121C105.739 141.121 99.4542 134.97 99.4542 127.392C99.4542 122.505 102.067 118.212 105.999 115.779Z" fill="white"/>
</svg>
